Coordinates
version=1
nRows=10
nColumns=40
inDegrees=yes

Units are S.I. units (second, meters, Newtons, ...)
If the header above contains a line with 'inDegrees', this indicates whether rotational values are in degrees (yes) or radians (no).

endheader
time	pelvis_tilt	pelvis_list	pelvis_rotation	pelvis_tx	pelvis_ty	pelvis_tz	hip_flexion_r	hip_adduction_r	hip_rotation_r	knee_angle_r	knee_angle_r_beta	ankle_angle_r	subtalar_angle_r	mtp_angle_r	hip_flexion_l	hip_adduction_l	hip_rotation_l	knee_angle_l	knee_angle_l_beta	ankle_angle_l	subtalar_angle_l	mtp_angle_l	lumbar_extension	lumbar_bending	lumbar_rotation	arm_flex_r	arm_add_r	arm_rot_r	elbow_flex_r	pro_sup_r	wrist_flex_r	wrist_dev_r	arm_flex_l	arm_add_l	arm_rot_l	elbow_flex_l	pro_sup_l	wrist_flex_l	wrist_dev_l
      8.85000000	    -13.58139303	      1.06899643	   -176.08229361	      0.19784743	      0.79525545	     -0.94495079	    -15.37447849	    -30.91311716	    -37.47483696	      3.72794099	      0.06506484	    -14.04717336	      0.00000000	      0.00000000	     -9.89627118	    -36.47848956	    -32.35961471	      5.00870316	      0.08741836	    -15.40545590	      0.00000000	      0.00000000	    -14.46100115	     -2.31536893	     -0.99797461	     11.37930034	    -12.62518332	     53.20283433	     17.54953079	     84.92504550	      0.00000000	      0.00000000	     10.42193233	     -7.55721006	     -8.58304623	     12.76109913	     83.57171695	      0.00000000	      0.00000000
      8.85500000	    -13.67320000	      1.08002026	   -176.11322964	      0.19788436	      0.79533350	     -0.94499377	    -15.45143087	    -30.89294204	    -37.43207373	      3.71059009	      0.06476201	    -14.04202046	      0.00000000	      0.00000000	    -10.02760845	    -36.49217341	    -32.41364016	      5.00693624	      0.08738752	    -15.39901947	      0.00000000	      0.00000000	    -14.55066731	     -2.32284307	     -0.75676925	     11.12430035	    -12.54642713	     51.82521229	     17.53547666	     84.94990831	      0.00000000	      0.00000000	     10.22987201	     -8.00422761	     -5.00288368	     13.15008283	     83.66006164	      0.00000000	      0.00000000
      8.86000000	    -13.70381987	      1.02413279	   -176.10931066	      0.19791943	      0.79531262	     -0.94496408	    -15.50880833	    -30.95429142	    -37.47578930	      3.70019056	      0.06458051	    -14.06082464	      0.00000000	      0.00000000	    -10.04729155	    -36.42962006	    -32.39780909	      5.00975068	      0.08743664	    -15.38352507	      0.00000000	      0.00000000	    -14.57882837	     -2.38614374	     -0.62995610	     11.16104720	    -12.62587863	     52.38761315	     17.53557871	     84.76835310	      0.00000000	      0.00000000	     10.05214757	     -8.45685228	     -1.80068066	     13.52299963	     83.73112970	      0.00000000	      0.00000000
      8.86500000	    -13.75889018	      0.93118668	   -176.18755029	      0.19793021	      0.79535507	     -0.94500030	    -15.53276356	    -31.07388661	    -37.42203750	      3.71248324	      0.06479506	    -14.04314828	      0.00000000	      0.00000000	    -10.18535358	    -36.30713264	    -32.50070885	      4.97676363	      0.08686091	    -15.38755889	      0.00000000	      0.00000000	    -14.65488436	     -2.50291797	     -0.49997802	     10.98509606	    -12.56892436	     51.33932075	     17.61358390	     84.84316284	      0.00000000	      0.00000000	     10.07053346	     -8.55467384	     -0.99641377	     13.58772714	     83.60952125	      0.00000000	      0.00000000
      8.87000000	    -13.78286316	      0.96376664	   -176.18447741	      0.19793689	      0.79538163	     -0.94498332	    -15.55365479	    -31.03103545	    -37.42504532	      3.70595417	      0.06468110	    -14.06018162	      0.00000000	      0.00000000	    -10.21436612	    -36.34406915	    -32.46279373	      4.97679547	      0.08686147	    -15.37226990	      0.00000000	      0.00000000	    -14.73528600	     -2.43210212	     -0.79140159	     11.18707595	    -12.48189283	     51.54820821	     17.50468224	     85.03798078	      0.00000000	      0.00000000	     10.33000814	     -7.97397440	     -5.18229745	     13.06764680	     83.48094433	      0.00000000	      0.00000000
      8.87500000	    -13.81425103	      0.94999528	   -176.19036485	      0.19804214	      0.79538137	     -0.94497274	    -15.58326560	    -31.04583049	    -37.41131691	      3.69582066	      0.06450424	    -14.09558340	      0.00000000	      0.00000000	    -10.24418438	    -36.33160978	    -32.46748334	      4.97800533	      0.08688258	    -15.39472306	      0.00000000	      0.00000000	    -14.78518223	     -2.45955387	     -0.62027010	     11.11102304	    -12.52834045	     51.24421093	     17.55421526	     85.00388009	      0.00000000	      0.00000000	     10.20966389	     -8.37045049	     -2.25497990	     13.36834955	     83.62574412	      0.00000000	      0.00000000
      8.88000000	    -13.84711274	      0.92154553	   -176.20635129	      0.19800124	      0.79539541	     -0.94495656	    -15.62317891	    -31.08109862	    -37.46497641	      3.68832326	      0.06437338	    -14.08303965	      0.00000000	      0.00000000	    -10.29092739	    -36.30513891	    -32.49795832	      4.99866229	      0.08724312	    -15.35343228	      0.00000000	      0.00000000	    -14.83529493	     -2.48582689	     -0.71483842	     11.04338481	    -12.33108470	     50.31098257	     17.42841806	     85.17905651	      0.00000000	      0.00000000	     10.31328021	     -8.19959112	     -3.56406026	     13.19224716	     83.50427462	      0.00000000	      0.00000000
      8.88500000	    -13.87645094	      0.86224516	   -176.25311484	      0.19804859	      0.79541170	     -0.94497669	    -15.64162487	    -31.15315773	    -37.42970342	      3.67063827	      0.06406472	    -14.08749744	      0.00000000	      0.00000000	    -10.39031542	    -36.20970948	    -32.51302432	      4.92626410	      0.08597953	    -15.36925048	      0.00000000	      0.00000000	    -14.86907881	     -2.55425546	     -0.59173810	     11.13070796	    -12.49141260	     51.22475911	     17.53129500	     84.93654694	      0.00000000	      0.00000000	     10.22709077	     -8.45903983	     -1.69779831	     13.40479993	     83.67656392	      0.00000000	      0.00000000
      8.89000000	    -13.91463453	      0.79383536	   -176.28093653	      0.19800233	      0.79541353	     -0.94495234	    -15.67806004	    -31.24751243	    -37.45923891	      3.70226281	      0.06461668	    -14.05960158	      0.00000000	      0.00000000	    -10.44748994	    -36.13680954	    -32.56284605	      4.94481041	      0.08630322	    -15.36717316	      0.00000000	      0.00000000	    -14.90633869	     -2.62491164	     -0.50887881	     11.19610312	    -12.58955252	     51.82959372	     17.58353659	     84.90930345	      0.00000000	      0.00000000	     10.17157252	     -8.70322761	     -0.06720980	     13.57129462	     83.88159691	      0.00000000	      0.00000000
      8.89500000	    -13.91177060	      0.85275801	   -176.22061353	      0.19796435	      0.79536961	     -0.94487516	    -15.74059166	    -31.14424513	    -37.48622849	      3.62818155	      0.06332371	    -14.09454496	      0.00000000	      0.00000000	    -10.36002169	    -36.24454126	    -32.47158877	      5.04907054	      0.08812291	    -15.31579257	      0.00000000	      0.00000000	    -14.93284225	     -2.52325247	     -0.76242672	     11.70975973	    -12.94387376	     54.84148607	     17.79105453	     84.49119337	      0.00000000	      0.00000000	     10.32652421	     -8.30029779	     -3.07236866	     13.18198849	     84.03367902	      0.00000000	      0.00000000
